<svg xmlns="http://www.w3.org/2000/svg" fill="none" viewBox="0 0 474 354">
  <path fill="#E6E6E6" d="M462.97 207.02C512.61 261.9 368.73 341 252.47 341S55.78 279.7 41.97 207C8.47 30.75 327.33-81.3 252.47 73.03c-109.12 224.95 171.42 90.77 210.5 134Z"/>
  <path fill="#3F3D56" d="M440.7 220c49.64 54.9-94.24 134-210.5 134S33.51 292.7 19.7 220C-13.8 43.74 305.06-68.3 230.2 86.03 121.08 310.96 401.62 176.78 440.7 220Z"/>
  <path fill="#47A138" stroke="#47A138" stroke-width="2" d="M43.3 72.55c.17-.02.33-.02.5.01l.16.04.15.05.3.15.14.1.12.1c.08.08.16.17.22.26l.09.14.07.15c.05.1.08.21.1.32l.03.17.01.16a1.7 1.7 0 0 1-.27.95l-.1.14c-.1.13-.23.24-.37.33l-.14.1c-.2.1-.4.16-.63.19-11.91 1.36-21.56 3.44-28.24 5.92-3.34 1.25-5.89 2.58-7.6 3.93-1.6 1.29-2.35 2.5-2.48 3.6l-.02.21c-.04 1.02.4 2.14 1.48 3.37a19.41 19.41 0 0 0 5 3.78c4.5 2.54 11.1 4.98 19.32 7.17 16.43 4.37 39.14 7.67 63.9 8.76l2.31.1c23.87.9 45.88-.4 62.1-3.22 8.4-1.45 15.18-3.3 19.88-5.44a19.45 19.45 0 0 0 5.32-3.32c1.18-1.13 1.72-2.21 1.76-3.23v-.22c-.03-1.11-.67-2.39-2.17-3.81-1.6-1.51-4.03-3.06-7.27-4.6-6.47-3.07-15.96-6-27.79-8.4a1.7 1.7 0 0 1-1.29-1.17l-.04-.16a1.68 1.68 0 0 1 0-.67l.04-.16c.05-.16.13-.3.22-.45l.1-.13c.1-.13.23-.24.37-.33l.14-.09c.15-.07.31-.13.47-.16l.17-.02c.16-.02.33-.01.5.02 12.63 2.57 22.59 5.65 29.38 9.03 3.4 1.69 6.05 3.47 7.84 5.35 1.7 1.77 2.68 3.69 2.72 5.71v.4c-.16 3.62-3.33 6.59-8.12 8.98-4.87 2.44-11.8 4.47-20.3 6.04-16.44 3.05-38.93 4.4-64.05 3.44l-2.44-.1c-26.1-1.15-49.31-4.54-65.95-9.17-8.31-2.3-15.05-4.94-19.69-7.8-4.56-2.8-7.45-6.04-7.3-9.64l.04-.4c.21-2.01 1.36-3.83 3.2-5.44 1.94-1.71 4.72-3.26 8.23-4.64 7.01-2.76 17.15-4.95 29.88-6.4Z"/>
  <path fill="#47A138" d="M48.5 116.96a53.43 53.43 0 0 0 71.99 22.48 53.42 53.42 0 0 0 20.33-18.65c-30.82.42-61.64-.86-92.32-3.83ZM146.59 106.2a53.56 53.56 0 0 0-6.73-47.29 53.35 53.35 0 0 0-41.77-23 53.18 53.18 0 0 0-43.42 19.7 53.49 53.49 0 0 0-10.35 46.64 395.1 395.1 0 0 0 102.27 3.96Z"/>
  <path fill="#fff" d="M108.18 70.5a6.23 6.23 0 1 0 0-12.45 6.23 6.23 0 0 0 0 12.45ZM76.14 94.8c5.7 0 10.32-4.7 10.32-10.49a10.4 10.4 0 0 0-10.32-10.47A10.4 10.4 0 0 0 65.8 84.3 10.4 10.4 0 0 0 76.14 94.8Z"/>
  <path fill="#E6E6E6" d="M74.25 212.9a2.78 2.78 0 1 0 0-5.56 2.78 2.78 0 0 0 0 5.56ZM268.72 321.13a2.78 2.78 0 1 0 0-5.56 2.78 2.78 0 0 0 0 5.56ZM96.05 179.87a1.4 1.4 0 1 0 0-2.78 1.4 1.4 0 0 0 0 2.78ZM202.76 263.01a1.4 1.4 0 1 0 0-2.78 1.4 1.4 0 0 0 0 2.78ZM391.54 249.42a1.4 1.4 0 1 0 0-2.79 1.4 1.4 0 0 0 0 2.79ZM346.58 290.85a1.4 1.4 0 1 0 0-2.78 1.4 1.4 0 0 0 0 2.78ZM181.09 197.49a1.4 1.4 0 1 0 0-2.79 1.4 1.4 0 0 0 0 2.79ZM192.02 129.46a1.4 1.4 0 1 0 0-2.78 1.4 1.4 0 0 0 0 2.78ZM201.37 34.75a1.4 1.4 0 1 0 0-2.79 1.4 1.4 0 0 0 0 2.79ZM198.7 336.27a1.4 1.4 0 1 0 0-2.79 1.4 1.4 0 0 0 0 2.79ZM126.2 294.56a1.4 1.4 0 1 0 0-2.78 1.4 1.4 0 0 0 0 2.78ZM343.8 244.45a1.4 1.4 0 1 0 0-2.78 1.4 1.4 0 0 0 0 2.78Z"/>
  <path fill="#fff" d="M94.06 140.65a6.3 6.3 0 0 0 6.37-6.23 6.3 6.3 0 0 0-6.37-6.22 6.3 6.3 0 0 0-6.38 6.22 6.3 6.3 0 0 0 6.38 6.23Z"/>
  <path fill="#47A138" d="m404.35 164.19-21.18-17.45a20.56 20.56 0 0 0-9.43-27.96 20.63 20.63 0 0 0-26.66 8.28 20.56 20.56 0 0 0 30.54 26.42l21.18 17.45a4.37 4.37 0 0 0 5.55-6.74Zm-28.12-17.5a14.7 14.7 0 1 1-22.68-18.7 14.7 14.7 0 0 1 22.68 18.7Z"/>
  <path fill="#FF5031" d="M424.28 133.07a11.4 11.4 0 1 1 0-22.79 11.4 11.4 0 0 1 0 22.79Z"/>
  <path fill="#000" d="M417.89 127.38c-.36-.1-.69-.27-.96-.48a1.46 1.46 0 0 1-.4-.55c-.09-.2-.12-.41-.1-.63.02-.15.08-.3.17-.43.1-.13.23-.24.39-.33.4-.2.93-.2 1.47.01l.06-3.61h.44l-.07 4.25-.33-.18c-.39-.2-.94-.36-1.34-.16a.7.7 0 0 0-.25.22.56.56 0 0 0-.1.27c-.02.16 0 .32.07.47.06.16.17.3.3.4.47.4 1.18.53 1.98.65l-.08.36a8.47 8.47 0 0 1-1.25-.26ZM413.02 122.15l2.7.4-.08.5-2.7-.4.08-.5ZM426.81 122.15l-2.7.4.08.5 2.7-.4-.08-.5Z"/>
  <path stroke="#000" d="m392.04 144.51-.33.03c-.77.1-1.5.39-2.12.86l-.25.2a4.37 4.37 0 0 0 .16 6.68l.26.2a4.37 4.37 0 0 0 4.97-.01l.23-.16.26.11 23.94 10.57a3.2 3.2 0 0 0 1.77.24l.26-.05c.59-.14 1.13-.44 1.55-.87l.18-.19 6.06-7.21-5.93-4.67-3.68 3.6-.2.2-.29-.07-22.17-6.16-.25-.07-.09-.26a4.37 4.37 0 0 0-1.82-2.3l-.28-.17a4.37 4.37 0 0 0-2.23-.5Z"/>
  <path fill="#47A138" d="m419.8 153.85 8.32 6.47a2.08 2.08 0 0 0 3.1-.62l5.17-9.15a5.8 5.8 0 0 0-9.17-7.1l-7.58 7.24a2.1 2.1 0 0 0 .16 3.16Z"/>
  <path stroke="#000" d="m408.8 228.42 2.58 20.94h4.75v-20.94h-7.33Z"/>
  <path fill="#DEE9EA" d="M418.08 248h-11.2a7.15 7.15 0 0 0-7.14 7.14v.23h18.34V248Z"/>
  <path stroke="#000" d="m393.95 227.03 2.59 20.93h4.74v-20.94h-7.33Z"/>
  <path fill="#DEE9EA" d="M403.23 246.6h-11.2a7.15 7.15 0 0 0-7.14 7.15v.23h18.34v-7.37Z"/>
  <path fill="#2F2E41" d="M442.14 198.37a18.29 18.29 0 0 1-17.12 12.44h-.29c-2.93.1-6.38-.86-9.76-2.22-6.68-2.68-13.1-6.98-14.8-8.16l2.88 27.73 1.17 11.25a2.1 2.1 0 0 1-2.08 2.3h-7.2a2.09 2.09 0 0 1-2.02-1.55l-11.9-45.3a8.82 8.82 0 0 1 9.14-11.06l24.71 1.69-1.72-6.9 22.05-1.47.07.05a18.71 18.71 0 0 1 4.78 4.76 17.85 17.85 0 0 1 2.09 16.44Z"/>
  <path fill="#2F2E41" d="M442.14 198.37a18.28 18.28 0 0 1-17.12 12.44 91.1 91.1 0 0 1-10.47-6.2l.42 3.98 3.63 35a2.09 2.09 0 0 1-2.08 2.3h-7.2a2.1 2.1 0 0 1-2.02-1.56l-4.25-16.17-7.65-29.13a8.82 8.82 0 0 1 9.15-11.06l24.7 1.7-1.72-6.9 12.52-.84a17.85 17.85 0 0 1 2.09 16.44Z"/>
  <path fill="#47A138" d="m436.84 179.98.16-.02 3.85-18.92c.03-.17 3.18-16.49-6.47-25.02l-.16-1.17a2.09 2.09 0 0 0-2.69-1.7l-9.08 2.82a2.08 2.08 0 0 0-1.4 2.53l.88 3.36c-1.23 1.43-15.64 18.8-10.62 32.16l2.25 8.8 23.28-2.84Z"/>
  <path fill="#47A138" d="m422.8 159.62 10.46 1.35a2.1 2.1 0 0 0 2.36-2.11l-.2-10.52a5.8 5.8 0 0 0-11.51-1.44l-2.85 10.08a2.1 2.1 0 0 0 1.74 2.64Z"/>
  <path stroke="#000" d="M432.26 103.86a12.34 12.34 0 0 0-5.74.79l-.1.05h-.13c-3.99-.2-6.8.64-8.8 1.97-2 1.33-3.23 3.17-3.97 5.06a16.78 16.78 0 0 0-1.06 7.05l.01.23 13.59.62 1.27-2.33.62-1.12.3 1.24c1.38 5.6.86 10.72-.01 14.43a31.94 31.94 0 0 1-1.37 4.4l-.16.4 17-7.92-.16-2.73-.08-1.44.96 1.08 1.57 1.78 2.07-1.14.3-1.75.1-.53.52.13.88.22-6.7-12.16c-3.45-6.14-7.64-7.97-10.9-8.33ZM422.43 159.83l-.08.28-.27.08-22.23 5.96-.25.07-.2-.17a4.37 4.37 0 0 0-2.74-1.06h-.33c-.78.03-1.53.28-2.18.7l-.27.2a4.38 4.38 0 0 0-1.6 4.4l.08.32c.22.74.64 1.41 1.2 1.94l.26.21c.6.49 1.33.8 2.1.91l.32.04c.77.05 1.55-.1 2.24-.44l.3-.16a4.37 4.37 0 0 0 1.73-1.94l.12-.25.28-.03 26-3.07a3.2 3.2 0 0 0 1.64-.7l.2-.17c.43-.42.74-.95.9-1.54l.05-.25 1.55-9.3-7.48-1-1.34 4.97Z"/>
  <path fill="#fff" d="M165.86 272.4a2.04 2.04 0 0 0-.8-1.03c-.8-.53-1.97-.65-2.73 0l-.2.22-.7.8c-.39.45-.79.88-1.2 1.3l-.36.34a19.78 19.78 0 0 1-1.47 1.33l-.67.55-.06.05-.01.01-.01.01-.03.01-.14.1.03-.01-.16.13a30.23 30.23 0 0 1-5.95 3.41l-.3.12a26.11 26.11 0 0 1-15.2 1.43c-1.87-.37-3.7-.93-5.46-1.65a36 36 0 0 1-6.28-3.68l-.91-.64a158.64 158.64 0 0 0 1.5-3.83 273.41 273.41 0 0 0 8.54-26.1l.14-.51.41-1.53c.3-1.16-.38-2.53-1.6-2.8a2.32 2.32 0 0 0-2.8 1.58 267.22 267.22 0 0 1-2.4 8.59l-.32 1.02a269.12 269.12 0 0 1-7.24 20.78l-.26.64a12.7 12.7 0 0 0-2.67-.64l-.15-.02a8.3 8.3 0 0 0-5.1 1.05 7.27 7.27 0 0 0-2.26 2.2c-1.45 2.29-1.43 5.55.6 7.48 2.1 2 5.26 1.98 7.72.74 1.3-.71 2.4-1.74 3.2-3 .3-.45.58-.93.83-1.41l.2.13.72.51a33.93 33.93 0 0 0 4.4 2.7 32.9 32.9 0 0 0 10.52 3.19l.24.03a31.51 31.51 0 0 0 27.87-11.2c.41-.43.65-1 .67-1.6 0-.28-.05-.55-.15-.8Zm-50.29 7.23Zm.98-.98-.2.24a7.19 7.19 0 0 1-.8.75l-.13.07a5.2 5.2 0 0 1-.4.22c-.27.1-.54.18-.82.23-.22.01-.43.02-.65 0-.15-.03-.3-.07-.44-.12a2.64 2.64 0 0 1-.22-.12l-.06-.06a.62.62 0 0 1-.09-.09l-.1-.19a3.5 3.5 0 0 1-.07-.23v-.42c.04-.2.1-.39.17-.57l.2-.38.08-.12.14-.16c.08-.1.17-.17.26-.25.17-.12.35-.22.53-.31.29-.1.59-.18.89-.24.44-.03.9-.03 1.34.01.42.08.84.18 1.24.3-.24.49-.53.95-.84 1.39l-.03.05Zm-3.38-1a.72.72 0 0 1-.1.12.43.43 0 0 1 .1-.12Z"/>
  <path fill="#fff" d="m156.73 241.38-.08 2.86a3391.28 3391.28 0 0 1-.38 13.5l-.1 3.7-.29 9.93-.03 1.03a8107.73 8107.73 0 0 0-.28 10.27l-.12 4.01-.82 29.1a2.32 2.32 0 0 1-2.28 2.27 2.3 2.3 0 0 1-2.27-2.28 17868.93 17868.93 0 0 1 .88-31.15l.13-4.88.2-7.34.04-1.03.02-.9.4-14.26.16-5.61.18-6.4.08-2.82a2.32 2.32 0 0 1 2.28-2.28 2.3 2.3 0 0 1 2.28 2.28ZM281.67 242.01a271.3 271.3 0 0 1-11.4 33.91l.23-.54a16.56 16.56 0 0 1-1.7 3.23l-.24.27a7.19 7.19 0 0 1-.86.83l.28-.22c-.03.07-.26.18-.34.22a5.5 5.5 0 0 1-.73.37l.55-.23a5.8 5.8 0 0 1-1.29.35l.6-.08c-.42.06-.86.07-1.3.02l.6.08c-.35-.05-.7-.14-1.03-.28l.55.23a3.66 3.66 0 0 1-.51-.27c-.08-.06-.34-.25 0 0 .34.27.04.03-.03-.04l-.17-.18c-.27-.28.3.47.12.15-.1-.16-.19-.33-.27-.5l.23.55c-.1-.26-.18-.53-.22-.81l.08.6c-.04-.34-.04-.69 0-1.03l-.08.6c.06-.38.16-.75.3-1.11l-.23.54a5.05 5.05 0 0 1 .58-1.02c.01 0-.38.46-.17.23l.16-.18.28-.27c.32-.3-.44.29-.08.05.27-.18.55-.33.84-.46l-.55.23c.5-.2 1-.33 1.52-.4l-.6.08a7.8 7.8 0 0 1 1.96.02l-.6-.08c.82.13 1.62.35 2.39.67l-.54-.23c1.63.7 3.08 1.75 4.53 2.77a33.97 33.97 0 0 0 4.4 2.7 32.91 32.91 0 0 0 10.52 3.19 31.57 31.57 0 0 0 28.12-11.16c.4-.44.64-1.01.66-1.61 0-.6-.24-1.18-.67-1.61-.83-.77-2.4-.99-3.22 0a28.97 28.97 0 0 1-4.46 4.38c-.12.1-.5.35.08-.06l-.39.3a30.13 30.13 0 0 1-6.17 3.5l.54-.22a29.45 29.45 0 0 1-7.34 2l.6-.07c-2.6.34-5.22.33-7.81-.02l.6.09a30.29 30.29 0 0 1-7.55-2.06l.55.23a35.2 35.2 0 0 1-6.6-3.82c-1.07-.8-2.2-1.5-3.38-2.13a13 13 0 0 0-4.38-1.33 7.56 7.56 0 0 0-7.37 3.25c-1.45 2.28-1.43 5.55.6 7.48 2.1 2 5.26 1.98 7.73.73 2.37-1.2 3.8-3.7 4.8-6.05a271.4 271.4 0 0 0 11.68-34.56c.3-1.16-.39-2.53-1.6-2.8a2.32 2.32 0 0 0-2.8 1.58Z"/>
  <path fill="#fff" d="m304.4 241.38-.82 29.1-.82 28.93-.46 16.36a2.3 2.3 0 0 0 2.28 2.28 2.33 2.33 0 0 0 2.28-2.28l.81-29.09.82-28.94.46-16.36a2.3 2.3 0 0 0-2.28-2.28 2.32 2.32 0 0 0-2.27 2.28ZM222.26 294.18a25.97 25.97 0 0 1-9.02 14.6L211 309l-1.84.18-.1.01-.09-.67-.3-2.73a15.6 15.6 0 0 1-1.34-13.32c1.07-2.92 3-5.5 4.9-8.07 2.63-3.53 5.18-7.03 5.28-11.35a24.94 24.94 0 0 1 3.2 5.47c-.79.38-1.5.9-2.08 1.55-.16.19-.33.45-.22.67.1.19.34.23.55.26l1.53.16 1.2.13a26.5 26.5 0 0 1 .58 12.9Z"/>
  <path fill="#47A138" d="M235.87 283.41c-2.4 1.74-3.8 4.25-4.9 7.01-1.11.36-2.12 1-2.92 1.86-.16.18-.33.44-.22.66.1.19.35.23.56.25l1.53.16c-1.1 3.27-2.1 6.65-4.02 9.4a15.06 15.06 0 0 1-6.54 5.24 453.95 453.95 0 0 0-8.36.72l-1.85.18v-.67a25.67 25.67 0 0 1 6.78-16.82 25.58 25.58 0 0 1 19.95-8Z"/>
  <path fill="#47A138" d="m211.62 306.7-.47 1.39-.23.7-1.85.18-.11.01-2.02.21-.52-.62a25.33 25.33 0 0 1 3.28-35.52c-.53 2.82.1 5.52 1.12 8.2l-.31.14c-.8.37-1.5.89-2.09 1.53-.16.19-.33.44-.22.66.1.2.34.24.56.26l1.53.16 1.22.13.57.06.08.18c1.16 2.52 2.4 5.05 3.11 7.68a15.37 15.37 0 0 1-3.65 14.66Z"/>
  <path fill="#fff" d="M243.87 263.35a33.65 33.65 0 0 0-11.43-12.54 34.7 34.7 0 0 0-18.2-5.7c-.9-.01-14.24 3.83-18.7 6.98a34.7 34.7 0 0 0-10.74 12 31.12 31.12 0 0 0-3.68 15.68 34.48 34.48 0 0 0 4.47 15.63 33.54 33.54 0 0 0 11.06 11.77c4.66 2.97 9.34 10.85 14.84 11.13 5.54.28 11.86-7.15 16.91-9.4a31.71 31.71 0 0 0 12.67-10.34c3.16-4.4 5.2-9.5 5.96-14.86a34.4 34.4 0 0 0-1.46-16.4 34.3 34.3 0 0 0-1.7-3.95c-.54-1.06-2.12-1.45-3.11-.81a2.33 2.33 0 0 0-.82 3.11c.32.63.61 1.26.88 1.9l-.22-.54a30.75 30.75 0 0 1 2.08 7.76l-.08-.6c.38 2.89.37 5.81-.02 8.7l.08-.6a33.31 33.31 0 0 1-2.3 8.4l.24-.54a31.63 31.63 0 0 1-3.9 6.73l-.43.5a28.4 28.4 0 0 1-3.93 3.87l-.43.34.2-.15c-.1.06-.18.13-.27.2a29.63 29.63 0 0 1-6.3 3.58l.55-.23a33.12 33.12 0 0 1-8.38 2.3l.6-.09c-2.87.4-5.8.4-8.68.02l.61.08a30.32 30.32 0 0 1-7.62-2.06l.54.23a28.49 28.49 0 0 1-5.95-3.41l-.26-.2c-.28-.21.2.15.2.16a31.06 31.06 0 0 1-5.24-5.24c-.1-.14-.28-.4.13.15l-.17-.21a28.36 28.36 0 0 1-1.66-2.42c-.9-1.47-1.7-3-2.37-4.6l.23.55a32.39 32.39 0 0 1-2.23-8.15l.08.6c-.34-2.58-.35-5.2-.01-7.78l-.08.6c.34-2.5 1.01-4.94 2-7.27l-.23.55a30.68 30.68 0 0 1 3.84-6.61c.1-.13.37-.46-.1.11l.14-.17c.25-.32.52-.64.79-.96a32.53 32.53 0 0 1 4.63-4.45l.17-.13c-.6.48-.16.13-.03.02a32.08 32.08 0 0 1 6.63-3.81l-.54.23c2.35-1 12.8-3.33 14.7-3.07l-.61-.09a32.2 32.2 0 0 1 8.11 2.25l-.54-.23a33.7 33.7 0 0 1 6.88 3.94l.22.17c.32.24-.43-.34-.1-.08a33.83 33.83 0 0 1 5.24 5.17c.1.13.48.63.02.02l.34.45c.96 1.3 1.81 2.67 2.55 4.11.54 1.06 2.12 1.46 3.12.82a2.33 2.33 0 0 0 .81-3.12ZM114.92 281.56a3.34 3.34 0 1 0 0-6.68 3.34 3.34 0 0 0 0 6.68ZM155 318a3.34 3.34 0 1 0 0-6.69 3.34 3.34 0 0 0 0 6.69ZM307.15 318a3.34 3.34 0 1 0 0-6.68 3.34 3.34 0 0 0 0 6.68ZM315.35 275.48a3.34 3.34 0 1 0 0-6.68 3.34 3.34 0 0 0 0 6.68ZM305.63 244.5a3.34 3.34 0 1 0 0-6.67 3.34 3.34 0 0 0 0 6.68ZM166.24 272.14a3.32 3.32 0 1 1-6.64-.01 3.32 3.32 0 0 1 6.64.01ZM156.82 241.17a3.33 3.33 0 1 1-6.65-.02 3.33 3.33 0 0 1 6.66.02ZM267.97 282.77a3.34 3.34 0 1 0 0-6.68 3.34 3.34 0 0 0 0 6.68Z"/>
</svg>
